<svg width="100" height="16" viewBox="0 0 100 16" fill="none" xmlns="http://www.w3.org/2000/svg">
<path fill-rule="evenodd" clip-rule="evenodd" d="M0 8C0 8.92278 0.186725 9.81059 0.53242 10.6384C0.771382 10.3649 1.07766 10.1465 1.41567 9.99965L4.16045 8.80891C4.17387 8.80308 4.18748 8.79767 4.20126 8.79268L4.24731 8.776C4.65643 8.61118 4.86111 8.30055 4.86111 8.00684V7.99316C4.86111 7.69945 4.65643 7.38881 4.2473 7.22399L4.20127 7.20732C4.18749 7.20233 4.17387 7.19692 4.16045 7.19109L1.41596 6.00048C1.07794 5.85366 0.771382 5.63514 0.53242 5.36156C0.186726 6.18941 0 7.07722 0 8ZM8.5494 16C5.14455 16 2.2023 14.1341 0.827629 11.4362C0.84153 11.4048 0.856621 11.3738 0.872857 11.3434C1.04265 11.0253 1.33748 10.7653 1.70193 10.607L4.44642 9.41642L4.5031 9.39589C4.83793 9.26358 5.11671 9.05032 5.30305 8.78582C5.67587 10.1379 6.98815 11.137 8.5494 11.137C9.47839 11.137 10.3199 10.778 10.919 10.2047L10.9998 10.1291L12.1173 9.03937L16.0621 11.8236C14.608 14.3118 11.7874 16 8.5494 16ZM5.30305 7.21418C5.11671 6.94968 4.83793 6.73642 4.5031 6.60411L4.44642 6.58358L1.70193 5.39296C1.33748 5.23467 1.04265 4.97472 0.872856 4.65661C0.85662 4.62619 0.841528 4.59524 0.827627 4.5638C2.2023 1.86593 5.14455 0 8.5494 0C11.7874 0 14.608 1.68819 16.0621 4.17638L12.1173 6.96063L10.9998 5.87087L10.919 5.79528C10.3199 5.22205 9.47839 4.86299 8.5494 4.86299C6.98815 4.86299 5.67587 5.86209 5.30305 7.21418ZM28.1053 6.4C27.6745 5.98425 27.0619 5.72598 26.3887 5.72598C25.0491 5.72598 23.9585 6.74646 23.9585 8C23.9585 9.25354 25.0491 10.274 26.3887 10.274C27.0619 10.274 27.6745 10.0157 28.1053 9.6L28.1659 9.54331L28.9737 8.75591L31.8347 10.7717C30.7846 12.5732 28.7381 13.7953 26.3954 13.7953C22.9757 13.7953 20.2022 11.2 20.2022 8C20.2022 4.8 22.9757 2.20472 26.3954 2.20472C28.7381 2.20472 30.7846 3.42677 31.8347 5.22835L28.9737 7.24409L28.1659 6.45669L28.1053 6.4ZM42.4104 3.45827C41.9392 3.01732 41.4007 2.70866 40.7275 2.51969C40.0543 2.33071 39.3138 2.20472 38.506 2.20472C37.3616 2.20472 36.4191 2.3937 35.6786 2.77165C34.8708 3.08661 34.063 3.64724 33.2552 4.40315L35.1401 6.84724C35.6113 6.4063 36.0825 6.09764 36.5537 5.84567C37.025 5.5937 37.5635 5.46772 38.1021 5.46772C38.7752 5.46772 39.2465 5.65669 39.5157 5.90866C39.785 6.16063 39.9197 6.53228 39.9197 6.91024V7.09921H37.4289C35.9479 7.09921 34.8035 7.41417 33.9957 7.9748C33.1205 8.54173 32.7166 9.35433 32.7166 10.4189C32.7166 10.8598 32.7839 11.2945 32.9859 11.7354C33.1205 12.1134 33.3898 12.485 33.7264 12.8C34.063 13.115 34.4669 13.3669 35.0054 13.5496C35.4767 13.7386 36.0825 13.8016 36.7557 13.8016C37.4962 13.8016 38.1021 13.6756 38.7079 13.4866C39.3138 13.2976 39.785 13.0457 40.1889 12.674V13.8016H43.8914V7.15591C43.8914 6.34331 43.7568 5.65039 43.4875 5.02677C43.2182 4.39685 42.8817 3.83622 42.4104 3.45827ZM39.785 9.47402C39.785 9.97795 39.5831 10.4126 39.2465 10.6646C38.9099 10.9795 38.506 11.1055 37.9674 11.1055C37.6308 11.1055 37.2942 11.0425 37.0923 10.8535C36.8903 10.7276 36.7557 10.4756 36.7557 10.2299C36.7557 9.66299 37.0923 9.41732 37.8328 9.41732H39.785V9.47402ZM52.7101 7.28189C53.114 7.46457 53.5179 7.71654 53.7872 7.9685C54.0565 8.22047 54.3257 8.53543 54.4536 8.91969L54.4593 8.93547C54.592 9.308 54.7229 9.67543 54.7229 10.1102C54.7229 10.4567 54.6758 10.778 54.5883 11.0929C54.4806 11.5087 54.2719 11.8992 53.9891 12.2331C53.9588 12.2677 53.9286 12.3008 53.8983 12.3339L53.8979 12.3342L53.8976 12.3345C53.8676 12.3674 53.8375 12.4002 53.8074 12.4346C53.5448 12.7244 53.2284 12.9827 52.8717 13.1717C52.562 13.3417 52.2254 13.474 51.835 13.5559C51.2291 13.7449 50.5559 13.8079 49.8827 13.8079C48.8056 13.8079 47.8632 13.6189 46.9207 13.2409C46.0456 12.863 45.3051 12.3591 44.7666 11.6724L46.6515 9.41732C47.1227 9.85197 47.6612 10.1669 48.1998 10.4189C48.7383 10.6709 49.3442 10.7969 49.8827 10.7969C50.152 10.7969 50.4213 10.7339 50.6232 10.6709C50.8252 10.6079 50.9598 10.4819 50.9598 10.2929C50.9598 10.1669 50.8925 10.0409 50.7579 9.97795L50.2193 9.72598L48.873 9.22205C48.5667 9.11457 48.2808 8.9848 48.0056 8.85991L48.0055 8.85984L48.0048 8.85955C47.8932 8.80889 47.7834 8.75904 47.6747 8.71181C47.4862 8.62992 47.3044 8.54173 47.1362 8.43465C46.8198 8.23937 46.5236 8.0378 46.3149 7.84252C46.0456 7.59055 45.7763 7.2189 45.6417 6.90394L45.6361 6.88815C45.5033 6.51562 45.3724 6.14819 45.3724 5.71339C45.3724 5.14646 45.5071 4.64882 45.709 4.27087C45.911 3.82992 46.2476 3.45827 46.6515 3.14331C47.0554 2.83465 47.5266 2.64567 48.1325 2.45669C48.7383 2.26772 49.3442 2.20472 50.0847 2.20472C50.9598 2.20472 51.7676 2.33071 52.5081 2.58268C53.2486 2.83465 53.9218 3.26929 54.5277 3.83622L52.5755 6.14803C51.7676 5.52441 50.9598 5.20945 50.0847 5.20945C49.5461 5.20945 49.2769 5.33543 49.2769 5.65039C49.2769 5.77638 49.3442 5.90236 49.4788 5.96535C49.5091 5.97951 49.5427 5.99685 49.5798 6.01594C49.7076 6.08179 49.8759 6.16849 50.0847 6.21732L51.2964 6.65827C51.7115 6.79905 52.0865 6.98099 52.4216 7.14354L52.422 7.14373C52.5216 7.19203 52.6176 7.23861 52.7101 7.28189ZM65.9852 3.47717C65.5813 3.02992 65.1101 2.71496 64.5715 2.52598C64.033 2.33701 63.4271 2.21102 62.754 2.21102C62.0808 2.21102 61.5422 2.27402 61.0037 2.46299C60.5594 2.64567 60.1151 2.88504 59.7246 3.1811V0H55.6182V13.7953H59.7246V7.31968C59.7246 6.80945 59.8593 6.4315 60.1959 6.11024C60.4651 5.79528 60.869 5.66299 61.4076 5.66299C61.9461 5.66299 62.3501 5.78898 62.6866 6.11024C63.0232 6.4315 63.1579 6.80945 63.1579 7.31968V13.7953H67.2643V6.77795C67.2643 6.14173 67.1296 5.50551 66.9277 4.93228C66.6584 4.36535 66.3891 3.85512 65.9852 3.47717ZM80.2634 2.64567C81.0712 2.33071 81.8117 2.20472 82.6195 2.20472C84.0332 2.20472 85.1776 2.64567 85.9855 3.46457C86.7933 4.28346 87.1972 5.41732 87.1972 6.74016V13.7953H83.0908V7.24409C83.0908 6.3748 82.3368 5.66929 81.4078 5.66929C80.4788 5.66929 79.7249 6.3748 79.7249 7.24409V13.7953H75.6185V7.24409C75.6185 6.3748 74.8645 5.66929 73.9355 5.66929C73.0065 5.66929 72.2525 6.3748 72.2525 7.24409V13.7953H68.1461V2.20472H71.8486V3.33858C72.2526 3.02362 72.7238 2.70866 73.2623 2.51969C73.8009 2.33071 74.4067 2.20472 75.1472 2.20472C75.8877 2.20472 76.5609 2.33071 77.0995 2.58268C77.7053 2.83465 78.1766 3.14961 78.5805 3.65354C79.0517 3.2126 79.5902 2.89764 80.2634 2.64567ZM99.8799 6.24252C99.8126 5.97795 99.7318 5.71339 99.6241 5.46772C99.3548 4.84409 98.9846 4.24567 98.4797 3.77323C98.3114 3.61575 98.1162 3.46457 97.921 3.32598C97.8267 3.25669 97.7325 3.1937 97.6315 3.13071C97.6315 3.13071 97.6247 3.13071 97.6247 3.12441C97.3016 2.92283 96.9516 2.75276 96.5678 2.61417C95.9081 2.33071 95.134 2.21102 94.2992 2.21102C94.2824 2.21102 94.2656 2.2126 94.2487 2.21417C94.2319 2.21575 94.2151 2.21732 94.1983 2.21732C94.1747 2.21732 94.1528 2.21575 94.1309 2.21417C94.1091 2.2126 94.0872 2.21102 94.0636 2.21102C91.8421 2.21102 89.9101 3.39527 88.8801 5.14646C88.8675 5.17012 88.8522 5.19131 88.8376 5.21158C88.8288 5.22369 88.8204 5.23546 88.8128 5.24724C88.8094 5.25039 88.8077 5.25512 88.8061 5.25984C88.8044 5.26457 88.8027 5.26929 88.7993 5.27244L88.799 5.27305C88.7183 5.41773 88.6377 5.56243 88.557 5.71968C88.2271 6.45669 88.0925 7.1937 88.0858 7.9874V8.0315V8.0378C88.0858 8.85039 88.2204 9.66929 88.557 10.3559C88.8263 11.0425 89.2975 11.6724 89.9034 12.1701C90.4419 12.674 91.1824 13.0457 91.997 13.3606C92.8115 13.6756 93.6866 13.8016 94.6964 13.8016C96.4534 13.8016 98.0017 13.2976 99.4221 12.2961L97.9344 9.72598C97.4632 9.97795 96.9785 10.1984 96.4467 10.3496C95.8947 10.5071 95.3696 10.6016 94.8243 10.6016C94.1511 10.6016 93.6126 10.4756 93.1346 10.2866C92.6567 10.0976 92.3268 9.78268 92.1249 9.34803H99.752L99.927 8.11968C100.028 7.49606 100.035 6.85354 99.8799 6.24252ZM91.9633 6.92913C92.1181 5.96535 92.9596 5.22835 93.9896 5.22835C95.2753 5.22835 95.9149 5.96535 96.0293 6.92913H91.9633Z" fill="#1A80E3"/>
</svg>
